<?xml version="1.0" standalone="no"?>
<!DOCTYPE svg PUBLIC "-//W3C//DTD SVG 20010904//EN"
 "http://www.w3.org/TR/2001/REC-SVG-20010904/DTD/svg10.dtd">
<svg version="1.0" xmlns="http://www.w3.org/2000/svg"
 width="50.000000pt" height="50.000000pt" viewBox="0 0 50.000000 50.000000"
 preserveAspectRatio="xMidYMid meet">

<g transform="translate(0.000000,50.000000) scale(0.100000,-0.100000)"
fill="#000000" stroke="none">
<path d="M34 457 c-3 -8 -4 -43 -2 -78 3 -62 4 -64 31 -67 15 -2 27 -9 27 -18
0 -8 5 -14 10 -14 6 0 10 6 10 14 0 10 13 16 38 18 34 3 37 6 40 36 3 28 7 32
33 32 16 0 29 5 29 10 0 6 -13 10 -29 10 -26 0 -30 4 -33 33 l-3 32 -73 3
c-55 2 -74 -1 -78 -11z"/>
<path d="M317 464 c-4 -4 -7 -20 -7 -36 0 -21 -5 -28 -20 -28 -11 0 -20 -4
-20 -10 0 -5 9 -10 19 -10 15 0 21 -8 23 -32 3 -29 7 -33 36 -36 28 -3 32 -7
32 -33 0 -16 5 -29 10 -29 6 0 10 13 10 29 0 26 4 30 33 33 l32 3 0 75 0 75
-70 3 c-39 1 -74 0 -78 -4z"/>
<path d="M90 226 c0 -30 -3 -35 -27 -38 -28 -3 -28 -4 -28 -78 l0 -75 75 0 75
0 3 33 c2 24 8 32 23 32 10 0 19 5 19 10 0 6 -9 10 -19 10 -15 0 -21 8 -23 33
-3 29 -6 32 -40 35 -36 3 -38 5 -38 38 0 19 -4 34 -10 34 -5 0 -10 -15 -10
-34z"/>
<path d="M380 216 c0 -9 -12 -16 -32 -18 -30 -3 -33 -6 -36 -40 -3 -35 -6 -38
-33 -38 -16 0 -29 -4 -29 -10 0 -5 13 -10 29 -10 25 0 30 -4 33 -27 3 -28 4
-28 78 -28 l75 0 0 75 0 75 -32 3 c-21 2 -33 9 -33 18 0 8 -4 14 -10 14 -5 0
-10 -6 -10 -14z"/>
</g>
</svg>
